<svg width="36" height="36" viewBox="0 0 36 36" fill="none" xmlns="http://www.w3.org/2000/svg">
<g clip-path="url(#clip0_1735_1119)">
<path d="M18 6.31016C18.2652 6.31016 18.5196 6.2048 18.7071 6.01726C18.8946 5.82973 19 5.57537 19 5.31016V1.91016C19 1.64494 18.8946 1.39059 18.7071 1.20305C18.5196 1.01551 18.2652 0.910156 18 0.910156C17.7348 0.910156 17.4804 1.01551 17.2929 1.20305C17.1054 1.39059 17 1.64494 17 1.91016V5.31016C17 5.57537 17.1054 5.82973 17.2929 6.01726C17.4804 6.2048 17.7348 6.31016 18 6.31016Z" fill="white"/>
<path d="M18 29.6899C17.7348 29.6899 17.4804 29.7953 17.2929 29.9828C17.1054 30.1704 17 30.4247 17 30.6899V34.0899C17 34.3552 17.1054 34.6095 17.2929 34.797C17.4804 34.9846 17.7348 35.0899 18 35.0899C18.2652 35.0899 18.5196 34.9846 18.7071 34.797C18.8946 34.6095 19 34.3552 19 34.0899V30.6899C19 30.4247 18.8946 30.1704 18.7071 29.9828C18.5196 29.7953 18.2652 29.6899 18 29.6899Z" fill="white"/>
<path d="M8.32014 9.74014C8.50609 9.90917 8.74886 10.002 9.00014 10.0001C9.13175 10.0009 9.26221 9.97568 9.38405 9.92592C9.50589 9.87615 9.6167 9.80283 9.71014 9.71014C9.80387 9.61718 9.87827 9.50658 9.92904 9.38472C9.9798 9.26286 10.0059 9.13216 10.0059 9.00014C10.0059 8.86813 9.9798 8.73743 9.92904 8.61557C9.87827 8.49371 9.80387 8.38311 9.71014 8.29014L7.33014 5.92014C7.13884 5.75632 6.89277 5.67071 6.64109 5.68043C6.38942 5.69015 6.15068 5.79449 5.97258 5.97258C5.79449 6.15068 5.69015 6.38942 5.68043 6.64109C5.67071 6.89277 5.75632 7.13884 5.92014 7.33014L8.32014 9.74014Z" fill="white"/>
<path d="M27.6799 26.2599C27.5867 26.1667 27.476 26.0927 27.3542 26.0423C27.2323 25.9918 27.1018 25.9658 26.9699 25.9658C26.8381 25.9658 26.7075 25.9918 26.5857 26.0423C26.4638 26.0927 26.3532 26.1667 26.2599 26.2599C26.1667 26.3532 26.0927 26.4638 26.0423 26.5857C25.9918 26.7075 25.9658 26.8381 25.9658 26.9699C25.9658 27.1018 25.9918 27.2323 26.0423 27.3542C26.0927 27.476 26.1667 27.5867 26.2599 27.6799L28.6699 30.0799C28.7625 30.1744 28.873 30.2496 28.9948 30.3011C29.1167 30.3526 29.2476 30.3794 29.3799 30.3799C29.6437 30.3762 29.8953 30.2683 30.0799 30.0799C30.2662 29.8925 30.3707 29.6391 30.3707 29.3749C30.3707 29.1107 30.2662 28.8573 30.0799 28.6699L27.6799 26.2599Z" fill="white"/>
<path d="M6.31016 18C6.31016 17.7348 6.2048 17.4804 6.01726 17.2929C5.82973 17.1054 5.57537 17 5.31016 17H1.91016C1.64494 17 1.39059 17.1054 1.20305 17.2929C1.01551 17.4804 0.910156 17.7348 0.910156 18C0.910156 18.2652 1.01551 18.5196 1.20305 18.7071C1.39059 18.8946 1.64494 19 1.91016 19H5.31016C5.57537 19 5.82973 18.8946 6.01726 18.7071C6.2048 18.5196 6.31016 18.2652 6.31016 18Z" fill="white"/>
<path d="M34.0904 17H30.6904C30.4252 17 30.1709 17.1054 29.9833 17.2929C29.7958 17.4804 29.6904 17.7348 29.6904 18C29.6904 18.2652 29.7958 18.5196 29.9833 18.7071C30.1709 18.8946 30.4252 19 30.6904 19H34.0904C34.3556 19 34.61 18.8946 34.7975 18.7071C34.9851 18.5196 35.0904 18.2652 35.0904 18C35.0904 17.7348 34.9851 17.4804 34.7975 17.2929C34.61 17.1054 34.3556 17 34.0904 17Z" fill="white"/>
<path d="M8.31983 26.2599L5.91983 28.6699C5.77941 28.8092 5.68344 28.987 5.64405 29.1808C5.60467 29.3746 5.62364 29.5757 5.69856 29.7588C5.77349 29.9418 5.90101 30.0985 6.06499 30.2091C6.22897 30.3196 6.42206 30.3791 6.61983 30.3799C6.75214 30.3794 6.88302 30.3526 7.0049 30.3011C7.12677 30.2496 7.23722 30.1744 7.32983 30.0799L9.73983 27.6799C9.92813 27.4916 10.0339 27.2362 10.0339 26.9699C10.0339 26.7036 9.92813 26.4482 9.73983 26.2599C9.55153 26.0716 9.29613 25.9658 9.02983 25.9658C8.76353 25.9658 8.50813 26.0716 8.31983 26.2599Z" fill="white"/>
<path d="M26.9999 9.99991C27.1315 10.0007 27.262 9.97545 27.3838 9.92568C27.5057 9.87592 27.6165 9.8026 27.7099 9.70991L30.1099 7.29991C30.2962 7.11255 30.4007 6.8591 30.4007 6.59491C30.4007 6.33073 30.2962 6.07728 30.1099 5.88991C29.9226 5.70366 29.6691 5.59912 29.4049 5.59912C29.1408 5.59912 28.8873 5.70366 28.6999 5.88991L26.2899 8.28991C26.1962 8.38288 26.1218 8.49348 26.071 8.61534C26.0203 8.7372 25.9941 8.8679 25.9941 8.99991C25.9941 9.13193 26.0203 9.26263 26.071 9.38449C26.1218 9.50635 26.1962 9.61695 26.2899 9.70991C26.3834 9.8026 26.4942 9.87592 26.616 9.92568C26.7379 9.97545 26.8683 10.0007 26.9999 9.99991Z" fill="white"/>
<path d="M18.1301 7.74986C16.1213 7.72408 14.1501 8.2962 12.4672 9.39351C10.7843 10.4908 9.46574 12.0638 8.67905 13.9123C7.89236 15.7609 7.67311 17.8017 8.04918 19.7752C8.42524 21.7487 9.37963 23.5659 10.791 24.9956C12.2024 26.4254 14.0071 27.4031 15.9756 27.8046C17.944 28.2062 19.9875 28.0133 21.8461 27.2506C23.7047 26.4878 25.2945 25.1896 26.4135 23.5211C27.5324 21.8525 28.13 19.8889 28.1301 17.8799C28.1434 15.2116 27.0983 12.647 25.2238 10.7481C23.3492 8.84919 20.7983 7.771 18.1301 7.74986ZM18.1301 25.9999C16.5164 26.0257 14.9316 25.5706 13.5774 24.6927C12.2232 23.8147 11.161 22.5536 10.526 21.0699C9.89092 19.5862 9.71184 17.9471 10.0115 16.3613C10.3112 14.7755 11.0761 13.3147 12.2087 12.1651C13.3414 11.0154 14.7906 10.2289 16.3717 9.90564C17.9529 9.58239 19.5945 9.73705 21.0875 10.3499C22.5805 10.9628 23.8573 12.0062 24.7553 13.3471C25.6533 14.6881 26.1319 16.266 26.1301 17.8799C26.1408 20.0159 25.3052 22.0693 23.806 23.591C22.3068 25.1126 20.2661 25.9787 18.1301 25.9999Z" fill="white"/>
</g>
<defs>
<clipPath id="clip0_1735_1119">
<rect width="36" height="36" fill="white"/>
</clipPath>
</defs>
</svg>
