<svg width="104" height="18" viewBox="0 0 104 18" fill="none" xmlns="http://www.w3.org/2000/svg">
<path d="M6.87878 2.32227L8.33813 6.81365H13.0607L9.24005 9.58949L10.6994 14.0809L6.87878 11.305L3.05818 14.0809L4.51752 9.58949L0.696917 6.81365H5.41944L6.87878 2.32227Z" fill="#1A5319"/>
<path d="M27.8788 2.32227L29.3381 6.81365H34.0607L30.24 9.58949L31.6994 14.0809L27.8788 11.305L24.0582 14.0809L25.5175 9.58949L21.6969 6.81365H26.4194L27.8788 2.32227Z" fill="#1A5319"/>
<path d="M48.8788 2.32227L50.3381 6.81365H55.0607L51.24 9.58949L52.6994 14.0809L48.8788 11.305L45.0582 14.0809L46.5175 9.58949L42.6969 6.81365H47.4194L48.8788 2.32227Z" fill="#1A5319"/>
<path d="M69.8788 2.32227L71.3381 6.81365H76.0607L72.24 9.58949L73.6994 14.0809L69.8788 11.305L66.0582 14.0809L67.5175 9.58949L63.6969 6.81365H68.4194L69.8788 2.32227Z" fill="white"/>
</svg>
