<svg width="23" height="19" viewBox="0 0 23 19" fill="none" xmlns="http://www.w3.org/2000/svg">
<path d="M4 3.51852H22L19.75 11.7037H6.25M19.75 14.2222H7L3.25 1H1" stroke="black" stroke-width="2" stroke-linecap="round" stroke-linejoin="round"/>
<path d="M18.25 18C19.0784 18 19.75 17.4362 19.75 16.7407C19.75 16.0452 19.0784 15.4814 18.25 15.4814C17.4216 15.4814 16.75 16.0452 16.75 16.7407C16.75 17.4362 17.4216 18 18.25 18Z" stroke="black" stroke-width="2" stroke-linecap="round" stroke-linejoin="round"/>
<path d="M8.5 18C9.32843 18 10 17.4362 10 16.7407C10 16.0452 9.32843 15.4814 8.5 15.4814C7.67157 15.4814 7 16.0452 7 16.7407C7 17.4362 7.67157 18 8.5 18Z" stroke="black" stroke-width="2" stroke-linecap="round" stroke-linejoin="round"/>
</svg>
