<svg width="19" height="20" viewBox="0 0 19 20" fill="none" xmlns="http://www.w3.org/2000/svg">
<path d="M3.42857 3.75643H18L16.1786 11.8182H5.25M16.1786 14.2988H5.85714L2.82143 1.27588H1" stroke="#D6EFD8" stroke-width="2" stroke-linecap="round" stroke-linejoin="round"/>
<path d="M14.9643 18.0196C15.6349 18.0196 16.1786 17.4643 16.1786 16.7793C16.1786 16.0944 15.6349 15.5391 14.9643 15.5391C14.2937 15.5391 13.75 16.0944 13.75 16.7793C13.75 17.4643 14.2937 18.0196 14.9643 18.0196Z" stroke="#D6EFD8" stroke-width="2" stroke-linecap="round" stroke-linejoin="round"/>
<path d="M7.07171 18.0196C7.74234 18.0196 8.28599 17.4643 8.28599 16.7793C8.28599 16.0944 7.74234 15.5391 7.07171 15.5391C6.40108 15.5391 5.85742 16.0944 5.85742 16.7793C5.85742 17.4643 6.40108 18.0196 7.07171 18.0196Z" stroke="#D6EFD8" stroke-width="2" stroke-linecap="round" stroke-linejoin="round"/>
</svg>
