<svg width="25" height="21" viewBox="0 0 25 21" fill="none" xmlns="http://www.w3.org/2000/svg">
<path d="M4.28571 3.75838H24L21.5357 12.7231H6.75M21.5357 15.4815H7.57143L3.46429 1H1" stroke="white" stroke-width="2" stroke-linecap="round" stroke-linejoin="round"/>
<path d="M19.8929 19.6187C20.8002 19.6187 21.5357 19.0012 21.5357 18.2395C21.5357 17.4778 20.8002 16.8604 19.8929 16.8604C18.9855 16.8604 18.25 17.4778 18.25 18.2395C18.25 19.0012 18.9855 19.6187 19.8929 19.6187Z" stroke="white" stroke-width="2" stroke-linecap="round" stroke-linejoin="round"/>
<path d="M9.21409 19.6187C10.1214 19.6187 10.8569 19.0012 10.8569 18.2395C10.8569 17.4778 10.1214 16.8604 9.21409 16.8604C8.30676 16.8604 7.57123 17.4778 7.57123 18.2395C7.57123 19.0012 8.30676 19.6187 9.21409 19.6187Z" stroke="white" stroke-width="2" stroke-linecap="round" stroke-linejoin="round"/>
</svg>
