<svg width="20" height="16" viewBox="0 0 20 16" fill="none" xmlns="http://www.w3.org/2000/svg">
<path d="M0.75 12.5V2.25H1H1.25V12.5H0.75ZM18.75 12.5V2.25H19H19.25V12.5H18.75ZM18.6775 13.5H19.1937C19.1003 13.9099 18.893 14.289 18.591 14.591C18.289 14.893 17.9099 15.1003 17.5 15.1937V14.6775C18.0643 14.5094 18.5094 14.0643 18.6775 13.5ZM16.5 14.75V15.25H3.5V14.75H16.5ZM2.5 14.6775V15.1937C2.09009 15.1003 1.71104 14.893 1.40901 14.591C1.10698 14.289 0.899687 13.9099 0.806251 13.5H1.32254C1.4906 14.0643 1.93575 14.5094 2.5 14.6775ZM17.75 1V1.25H2.25V1V0.75H17.75V1Z" fill="#D6EFD8" stroke="#D6EFD8"/>
<path d="M1 1L10 10L19 1" fill="#D6EFD8"/>
<path d="M1 1L10 10L19 1" stroke="#D6EFD8" stroke-width="1.5" stroke-linecap="round" stroke-linejoin="round"/>
</svg>
