<svg width="30" height="31" viewBox="0 0 30 31" fill="none" xmlns="http://www.w3.org/2000/svg">
<path d="M26.5625 15.4999H11.1188M5.6675 15.4999H3.4375M5.6675 15.4999C5.6675 14.7771 5.9546 14.084 6.46563 13.573C6.97667 13.062 7.66979 12.7749 8.3925 12.7749C9.11522 12.7749 9.80833 13.062 10.3194 13.573C10.8304 14.084 11.1175 14.7771 11.1175 15.4999C11.1175 16.2226 10.8304 16.9157 10.3194 17.4267C9.80833 17.9378 9.11522 18.2249 8.3925 18.2249C7.66979 18.2249 6.97667 17.9378 6.46563 17.4267C5.9546 16.9157 5.6675 16.2226 5.6675 15.4999ZM26.5625 23.7586H19.3775M19.3775 23.7586C19.3775 24.4815 19.0897 25.1754 18.5786 25.6865C18.0674 26.1977 17.3741 26.4849 16.6513 26.4849C15.9285 26.4849 15.2354 26.1965 14.7244 25.6855C14.2133 25.1744 13.9262 24.4813 13.9262 23.7586M19.3775 23.7586C19.3775 23.0357 19.0897 22.3431 18.5786 21.8319C18.0674 21.3208 17.3741 21.0336 16.6513 21.0336C15.9285 21.0336 15.2354 21.3207 14.7244 21.8317C14.2133 22.3428 13.9262 23.0359 13.9262 23.7586M13.9262 23.7586H3.4375M26.5625 7.24111H22.6813M17.23 7.24111H3.4375M17.23 7.24111C17.23 6.5184 17.5171 5.82528 18.0281 5.31425C18.5392 4.80321 19.2323 4.51611 19.955 4.51611C20.3129 4.51611 20.6672 4.5866 20.9978 4.72354C21.3284 4.86049 21.6288 5.06121 21.8819 5.31425C22.1349 5.56729 22.3356 5.86769 22.4726 6.1983C22.6095 6.52891 22.68 6.88326 22.68 7.24111C22.68 7.59897 22.6095 7.95331 22.4726 8.28393C22.3356 8.61454 22.1349 8.91494 21.8819 9.16798C21.6288 9.42102 21.3284 9.62174 20.9978 9.75869C20.6672 9.89563 20.3129 9.96611 19.955 9.96611C19.2323 9.96611 18.5392 9.67902 18.0281 9.16798C17.5171 8.65694 17.23 7.96383 17.23 7.24111Z" stroke="#1A5319" stroke-width="1.5" stroke-miterlimit="10" stroke-linecap="round"/>
</svg>
