<svg width="36" height="36" viewBox="0 0 36 36" fill="none" xmlns="http://www.w3.org/2000/svg">
<path d="M32.8417 20.0012C32.6973 19.8566 32.5164 19.754 32.3182 19.7044C32.12 19.6549 31.912 19.6602 31.7167 19.7199C29.5715 20.3684 27.2906 20.4228 25.117 19.8773C22.9434 19.3317 20.9586 18.2067 19.3739 16.622C17.7893 15.0374 16.6642 13.0525 16.1187 10.8789C15.5731 8.70533 15.6275 6.42444 16.276 4.27931C16.3362 4.08384 16.342 3.87567 16.2927 3.67717C16.2434 3.47867 16.141 3.29737 15.9963 3.15275C15.8517 3.00813 15.6704 2.90567 15.4719 2.85639C15.2734 2.80711 15.0652 2.81287 14.8698 2.87306C11.904 3.78156 9.30038 5.6023 7.42931 8.07618C5.79301 10.2486 4.79492 12.8343 4.54715 15.5428C4.29938 18.2512 4.81176 20.9751 6.02673 23.4084C7.24169 25.8417 9.1111 27.8879 11.4249 29.3174C13.7388 30.7468 16.4053 31.5026 19.1251 31.5001C22.2981 31.5098 25.3866 30.4783 27.917 28.5638C30.3908 26.6928 32.2116 24.0891 33.1201 21.1234C33.1796 20.9286 33.1851 20.7214 33.1361 20.5238C33.087 20.3261 32.9853 20.1455 32.8417 20.0012ZM26.5641 26.7667C24.1813 28.5614 21.2304 29.435 18.2545 29.2266C15.2787 29.0183 12.4783 27.7419 10.3688 25.6326C8.25938 23.5234 6.98285 20.723 6.77424 17.7472C6.56562 14.7714 7.43898 11.8204 9.23353 9.43743C10.4027 7.89346 11.9142 6.64188 13.6492 5.78118C13.5503 6.47478 13.5005 7.17449 13.5001 7.87509C13.5042 11.7526 15.0463 15.4702 17.7882 18.212C20.53 20.9538 24.2476 22.496 28.1251 22.5001C28.8271 22.4999 29.5282 22.4501 30.2232 22.351C29.3617 24.0863 28.1092 25.5978 26.5641 26.7667Z" fill="#4C5537"/>
</svg>
