<svg width="35" height="35" viewBox="0 0 35 35" fill="none" xmlns="http://www.w3.org/2000/svg">
<path d="M29.1617 33.5958C26.9002 35.4427 24.4311 35.1511 22.0542 34.2762C19.5389 33.3819 17.2313 33.343 14.5775 34.2762C11.2545 35.4816 9.50069 35.1317 7.51613 33.5958C-3.7451 23.8164 -2.08361 8.92387 10.7007 8.3795C13.816 8.51559 15.9851 9.8182 17.8082 9.93486C20.5312 9.46825 23.1388 8.12675 26.0464 8.30173C29.5309 8.53503 32.1616 9.70155 33.8923 11.8013C26.6925 15.4369 28.4002 23.4276 35 25.6634C33.6847 28.5797 31.977 31.4766 29.1386 33.6152L29.1617 33.5958ZM17.5774 8.26285C17.2313 3.92728 21.4081 0.349956 26.2079 0C26.8771 5.01603 20.8081 8.7489 17.5774 8.26285Z" fill="white"/>
</svg>
