<svg width="50" height="70" viewBox="0 0 50 70" fill="none" xmlns="http://www.w3.org/2000/svg">
<path d="M25 0.875C11.5435 0.875 0.625 10.7027 0.625 22.8125C0.625 42.3125 25 69.125 25 69.125C25 69.125 49.375 42.3125 49.375 22.8125C49.375 10.7027 38.4565 0.875 25 0.875ZM25 35C23.0716 35 21.1866 34.4282 19.5832 33.3568C17.9798 32.2855 16.7301 30.7627 15.9922 28.9812C15.2542 27.1996 15.0611 25.2392 15.4373 23.3479C15.8135 21.4566 16.7421 19.7193 18.1057 18.3557C19.4693 16.9921 21.2066 16.0635 23.0979 15.6873C24.9892 15.3111 26.9496 15.5042 28.7312 16.2422C30.5127 16.9801 32.0355 18.2298 33.1068 19.8332C34.1782 21.4366 34.75 23.3216 34.75 25.25C34.7472 27.835 33.719 30.3133 31.8912 32.1412C30.0633 33.969 27.585 34.9972 25 35Z" fill="#880010"/>
</svg>
