<svg width="9" height="15" viewBox="0 0 9 15" fill="none" xmlns="http://www.w3.org/2000/svg">
<path d="M8.57529 0.997483C7.91651 0.930601 7.25442 0.898053 6.59195 0.899983C4.3957 0.899983 3.0308 2.23873 3.0308 4.39373V5.85686H1.18591C1.0993 5.85686 1.01625 5.88978 0.955013 5.94839C0.893777 6.00699 0.859375 6.08648 0.859375 6.16936V8.57561C0.859375 8.65849 0.893777 8.73797 0.955013 8.79658C1.01625 8.85518 1.0993 8.88811 1.18591 8.88811H3.0308V13.7131C3.0308 13.796 3.06521 13.8755 3.12644 13.9341C3.18768 13.9927 3.27073 14.0256 3.35733 14.0256H5.95521C6.04181 14.0256 6.12487 13.9927 6.1861 13.9341C6.24734 13.8755 6.28174 13.796 6.28174 13.7131V8.88811H8.12076C8.20004 8.88814 8.27662 8.86058 8.33622 8.81055C8.39583 8.76053 8.43438 8.69146 8.44468 8.61623L8.76925 6.20998C8.7753 6.16588 8.77143 6.12105 8.75791 6.07849C8.7444 6.03593 8.72155 5.99662 8.69088 5.96319C8.66022 5.92976 8.62245 5.90299 8.58011 5.88465C8.53776 5.86631 8.49181 5.85684 8.44533 5.85686H6.28174V4.63248C6.28174 4.02623 6.40909 3.77311 7.20125 3.77311H8.53284C8.61945 3.77311 8.7025 3.74018 8.76374 3.68158C8.82497 3.62297 8.85938 3.54349 8.85938 3.46061V1.30748C8.85941 1.23161 8.83061 1.15832 8.77834 1.10128C8.72607 1.04424 8.6539 1.00735 8.57529 0.997483ZM8.20631 3.14748L7.2006 3.14811C5.79195 3.14811 5.62868 3.99561 5.62868 4.63248V6.16998C5.62868 6.25275 5.66299 6.33215 5.72409 6.39073C5.78518 6.44932 5.86807 6.48232 5.95456 6.48248H8.0744L7.83342 8.26373H5.95521C5.86861 8.26373 5.78556 8.29666 5.72432 8.35526C5.66308 8.41387 5.62868 8.49335 5.62868 8.57623V13.4H3.68386V8.57623C3.68386 8.49335 3.64946 8.41387 3.58823 8.35526C3.52699 8.29666 3.44394 8.26373 3.35733 8.26373H1.51309V6.48248H3.35733C3.44394 6.48248 3.52699 6.44956 3.58823 6.39095C3.64946 6.33235 3.68386 6.25286 3.68386 6.16998V4.39373C3.68386 2.59748 4.77121 1.52498 6.59195 1.52498C7.25089 1.52498 7.84582 1.55936 8.20631 1.58936V3.14748Z" fill="#D6EFD8"/>
</svg>
