<svg width="15" height="18" viewBox="0 0 15 18" fill="none" xmlns="http://www.w3.org/2000/svg">
<path d="M14.781 11.0304L8.03104 17.7804C7.96139 17.8501 7.87867 17.9054 7.78762 17.9432C7.69657 17.9809 7.59898 18.0003 7.50042 18.0003C7.40185 18.0003 7.30426 17.9809 7.21321 17.9432C7.12216 17.9054 7.03945 17.8501 6.96979 17.7804L0.219792 11.0304C0.0790615 10.8897 0 10.6988 0 10.4998C0 10.3007 0.0790615 10.1099 0.219792 9.96913C0.360523 9.8284 0.551394 9.74934 0.750417 9.74934C0.94944 9.74934 1.14031 9.8284 1.28104 9.96913L6.75042 15.4394V0.749756C6.75042 0.550843 6.82943 0.360078 6.97009 0.219426C7.11074 0.0787736 7.3015 -0.000244141 7.50042 -0.000244141C7.69933 -0.000244141 7.8901 0.0787736 8.03075 0.219426C8.1714 0.360078 8.25042 0.550843 8.25042 0.749756V15.4394L13.7198 9.96913C13.8605 9.8284 14.0514 9.74934 14.2504 9.74934C14.4494 9.74934 14.6403 9.8284 14.781 9.96913C14.9218 10.1099 15.0008 10.3007 15.0008 10.4998C15.0008 10.6988 14.9218 10.8897 14.781 11.0304Z" fill="white"/>
</svg>
