<svg width="71" height="69" viewBox="0 0 71 69" fill="none" xmlns="http://www.w3.org/2000/svg">
<path d="M35.5 68.9999V31.6666M35.5 33.9999V47.9999M35.5 33.9999C35.5 29.0492 33.4491 24.3013 29.7984 20.8006C26.1477 17.2999 21.1962 15.3333 16.0334 15.3333H1.43335V29.3333C1.43335 34.284 3.4843 39.0319 7.13501 42.5326C10.7857 46.0333 15.7371 47.9999 20.9 47.9999H35.5M35.5 33.9999H50.1C55.2629 33.9999 60.2143 32.0333 63.865 28.5326C67.5157 25.0319 69.5667 20.284 69.5667 15.3333V1.33325H54.9667C49.8038 1.33325 44.8524 3.29991 41.2017 6.80059C37.551 10.3013 35.5 15.0492 35.5 19.9999V33.9999ZM35.5 33.9999L54.9667 15.3333M35.5 47.9999L16.0334 29.3333" stroke="#D6EFD8"/>
</svg>
