<svg width="75" height="72" viewBox="0 0 75 72" fill="none" xmlns="http://www.w3.org/2000/svg">
<path d="M70.35 20.25L55.75 27.25M55.75 27.25L53.925 28.125L37.5 36M55.75 27.25V39.5M55.75 27.25L21.075 9.75M37.5 36L4.65 20.25M37.5 36V69.25M50.5597 5.837L57.8597 9.512C65.7108 13.4635 69.6383 15.4375 71.821 18.99C74 22.539 74 26.9595 74 35.797V36.2065C74 45.0405 74 49.461 71.821 53.01C69.6383 56.5625 65.7108 58.54 57.8597 62.4915L50.5597 66.163C44.1503 69.3865 40.9456 71 37.5 71C34.0544 71 30.8497 69.39 24.4403 66.163L17.1403 62.488C9.28915 58.5365 5.36175 56.5625 3.17905 53.01C1 49.461 1 45.0405 1 36.21V35.8005C1 26.963 1 22.5425 3.17905 18.9935C5.36175 15.441 9.28915 13.4635 17.1403 9.5155L24.4403 5.8405C30.8497 2.6135 34.0544 1 37.5 1C40.9456 1 44.1503 2.61 50.5597 5.837Z" stroke="#D6EFD8" stroke-width="1.5" stroke-linecap="round"/>
</svg>
