<svg width="56" height="54" viewBox="0 0 56 54" fill="none" xmlns="http://www.w3.org/2000/svg">
<path d="M35.2431 3.85167C35.3189 3.57174 35.5073 3.33201 35.7671 3.18494C36.0268 3.03787 36.3367 2.99543 36.6289 3.06691C40.6672 4.07546 44.3516 6.09899 47.3021 8.92868C50.2525 11.7584 52.3621 15.2917 53.4132 19.1642C53.4907 19.4441 53.4493 19.7421 53.298 19.9927C53.1467 20.2434 52.898 20.4263 52.6062 20.5013C52.5135 20.5265 52.4175 20.5394 52.3211 20.5396C52.0688 20.5388 51.824 20.4578 51.6248 20.3094C51.4257 20.161 51.2834 19.9534 51.2204 19.7193C50.2689 16.2224 48.3624 13.0319 45.6975 10.4765C43.0325 7.92107 39.7054 6.093 36.0586 5.18058C35.7672 5.10725 35.5179 4.92635 35.3651 4.67737C35.2123 4.42839 35.1684 4.13156 35.2431 3.85167ZM33.7774 13.9306C38.0547 15.0325 40.9376 17.797 42.0868 21.8985C42.1499 22.1327 42.2921 22.3403 42.4913 22.4887C42.6904 22.6371 42.9353 22.7181 43.1875 22.7189C43.284 22.7187 43.3799 22.7058 43.4727 22.6806C43.7644 22.6056 44.0132 22.4227 44.1645 22.172C44.3158 21.9213 44.3572 21.6234 44.2797 21.3435C42.9109 16.4216 39.4748 13.1403 34.3477 11.8169C34.0627 11.7641 33.7675 11.8174 33.5221 11.966C33.2767 12.1146 33.0996 12.3474 33.0269 12.6168C32.9542 12.8862 32.9913 13.1721 33.1308 13.4162C33.2702 13.6603 33.5014 13.8443 33.7774 13.9306ZM55.7173 40.9243C55.244 44.3668 53.4795 47.5261 50.7537 49.8118C48.0279 52.0975 44.5273 53.3531 40.9063 53.3439C18.8922 53.3439 0.984407 36.172 0.984407 15.0626C0.976904 11.5918 2.28725 8.23709 4.6707 5.62501C7.05416 3.01294 10.3477 1.32216 13.9362 0.86847C14.6714 0.782766 15.4157 0.928076 16.0574 1.28258C16.6991 1.63708 17.2035 2.18164 17.495 2.83449L23.5118 15.7243C23.7367 16.2241 23.8283 16.7698 23.7786 17.312C23.7288 17.8543 23.5391 18.3761 23.2266 18.8306C23.2009 18.8661 23.1753 18.9017 23.1468 18.9345L17.1014 25.8278C17.0066 25.9789 16.9522 26.1501 16.9433 26.3261C16.9343 26.5022 16.971 26.6777 17.0501 26.8368C19.2857 31.2255 24.0792 35.7864 28.7102 37.9302C28.8774 38.0046 29.0611 38.0382 29.2452 38.0282C29.4292 38.0182 29.6079 37.9648 29.7652 37.8728L36.8571 32.0978L36.9654 32.0185C37.44 31.7179 37.9853 31.5355 38.5518 31.4877C39.1184 31.44 39.6885 31.5284 40.2105 31.745L53.6756 37.531C54.3496 37.8122 54.9113 38.294 55.2775 38.9052C55.6437 39.5163 55.7949 40.2243 55.7087 40.9243H55.7173ZM52.7659 39.5243L39.2952 33.7384C39.1315 33.6725 38.9539 33.6449 38.7769 33.6577C38.5999 33.6705 38.4286 33.7235 38.2771 33.8122L31.211 39.5872L31.1055 39.6638C30.6142 39.9783 30.0463 40.1656 29.4571 40.2073C28.868 40.249 28.2776 40.1437 27.7435 39.9017C22.6107 37.5255 17.5035 32.6611 15.0255 27.7966C14.7706 27.2883 14.6567 26.7257 14.6947 26.1629C14.7326 25.6001 14.9212 25.0562 15.2422 24.5837C15.2679 24.5454 15.2964 24.5126 15.3249 24.4771L21.3674 17.5864C21.4579 17.4388 21.5111 17.2727 21.5225 17.1017C21.5339 16.9308 21.5032 16.7596 21.433 16.6021L15.4048 3.71222C15.3198 3.5124 15.1751 3.34113 14.9889 3.21998C14.8027 3.09883 14.5833 3.0332 14.3582 3.03136C14.3127 3.02873 14.2669 3.02873 14.2214 3.03136C11.1823 3.41749 8.39398 4.85177 6.37764 7.06605C4.36131 9.28033 3.25504 12.123 3.26566 15.0626C3.26566 34.9634 20.1526 51.1564 40.9063 51.1564C43.9719 51.1665 46.9364 50.1057 49.2455 48.1723C51.5547 46.2388 53.0505 43.565 53.4532 40.6509C53.4794 40.4163 53.4259 40.1798 53.3005 39.9767C53.1751 39.7737 52.9846 39.615 52.7574 39.5243H52.7659Z" fill="#D6EFD8"/>
</svg>
