<svg width="11" height="11" viewBox="0 0 11 11" fill="none" xmlns="http://www.w3.org/2000/svg">
<path d="M5.49062 2.88955C4.98381 2.88955 4.48838 3.03984 4.06698 3.32141C3.64558 3.60298 3.31713 4.00319 3.12318 4.47142C2.92923 4.93966 2.87849 5.45489 2.97736 5.95197C3.07624 6.44905 3.32029 6.90564 3.67866 7.26401C4.03704 7.62238 4.49363 7.86644 4.99071 7.96531C5.48778 8.06419 6.00302 8.01344 6.47125 7.81949C6.93949 7.62554 7.33969 7.2971 7.62127 6.8757C7.90284 6.4543 8.05312 5.95887 8.05312 5.45205C8.05395 5.11531 7.98823 4.78172 7.85975 4.47045C7.73126 4.15918 7.54254 3.87637 7.30442 3.63825C7.06631 3.40014 6.78349 3.21142 6.47223 3.08293C6.16096 2.95445 5.82737 2.88873 5.49062 2.88955ZM5.49062 7.1208C5.16058 7.1208 4.83794 7.02293 4.56352 6.83957C4.28909 6.6562 4.0752 6.39558 3.9489 6.09065C3.8226 5.78573 3.78955 5.4502 3.85394 5.12649C3.91833 4.80279 4.07726 4.50545 4.31064 4.27207C4.54402 4.03869 4.84136 3.87975 5.16507 3.81537C5.48877 3.75098 5.8243 3.78402 6.12923 3.91033C6.43415 4.03663 6.69478 4.25052 6.87814 4.52494C7.0615 4.79937 7.15937 5.122 7.15937 5.45205C7.15937 5.89463 6.98356 6.31908 6.67061 6.63203C6.35766 6.94499 5.93321 7.1208 5.49062 7.1208ZM8.75937 2.7833C8.75937 2.90691 8.72272 3.02775 8.65404 3.13053C8.58537 3.23331 8.48776 3.31342 8.37355 3.36073C8.25935 3.40803 8.13368 3.42041 8.01244 3.39629C7.89121 3.37218 7.77984 3.31265 7.69243 3.22524C7.60503 3.13784 7.5455 3.02647 7.52138 2.90523C7.49727 2.78399 7.50965 2.65833 7.55695 2.54412C7.60426 2.42992 7.68436 2.33231 7.78714 2.26363C7.88992 2.19496 8.01076 2.1583 8.13437 2.1583C8.30013 2.1583 8.45911 2.22415 8.57632 2.34136C8.69353 2.45857 8.75937 2.61754 8.75937 2.7833ZM10.4531 3.4083C10.472 2.6312 10.1821 1.8783 9.64687 1.31455C9.36924 1.04617 9.0414 0.83516 8.68214 0.693598C8.32287 0.552036 7.93922 0.482698 7.55312 0.489551C6.74062 0.452051 4.24062 0.452051 3.42812 0.489551C2.65138 0.472732 1.89923 0.762364 1.33437 1.2958C0.799183 1.85955 0.509261 2.61245 0.528125 3.38955C0.490625 4.20205 0.490625 6.70205 0.528125 7.51455C0.509261 8.29165 0.799183 9.04455 1.33437 9.6083C1.89923 10.1417 2.65138 10.4314 3.42812 10.4146C4.25312 10.4646 6.72813 10.4646 7.55312 10.4146C8.33023 10.4334 9.08313 10.1435 9.64687 9.6083C10.1821 9.04455 10.472 8.29165 10.4531 7.51455C10.4906 6.70205 10.4906 4.20205 10.4531 3.38955V3.4083ZM9.39062 8.4083C9.30577 8.62326 9.17766 8.8185 9.01424 8.98192C8.85083 9.14533 8.65559 9.27344 8.44062 9.3583C7.47037 9.55446 6.47848 9.62171 5.49062 9.5583C4.50485 9.62116 3.51509 9.55391 2.54688 9.3583C2.33191 9.27344 2.13667 9.14533 1.97326 8.98192C1.80984 8.8185 1.68173 8.62326 1.59687 8.4083C1.33438 7.7458 1.39063 6.1833 1.39063 5.4583C1.39063 4.7333 1.33438 3.16455 1.59687 2.5083C1.67934 2.29122 1.80653 2.0939 1.9702 1.92916C2.13386 1.76442 2.33034 1.63594 2.54688 1.55205C3.51509 1.35644 4.50485 1.28919 5.49062 1.35205C6.47848 1.28864 7.47037 1.35589 8.44062 1.55205C8.65559 1.63691 8.85083 1.76502 9.01424 1.92843C9.17766 2.09185 9.30577 2.28709 9.39062 2.50205C9.65312 3.16455 9.59062 4.72705 9.59062 5.45205C9.59062 6.17705 9.65312 7.7458 9.39062 8.40205V8.4083Z" fill="#D6EFD8"/>
</svg>
