<svg width="17" height="15" viewBox="0 0 17 15" fill="none" xmlns="http://www.w3.org/2000/svg">
<path fill-rule="evenodd" clip-rule="evenodd" d="M3.45851 1.51494C2.14674 2.12239 1.18605 3.56811 1.18605 5.29191C1.18605 7.05257 1.89767 8.41013 2.91609 9.57376C3.7566 10.5322 4.77344 11.3272 5.76498 12.1014C6.00061 12.2857 6.23465 12.4692 6.46474 12.6527C6.88065 12.9853 7.25149 13.2762 7.60967 13.4886C7.96707 13.7001 8.25488 13.7971 8.5 13.7971C8.74512 13.7971 9.03293 13.7009 9.39033 13.4886C9.74851 13.2762 10.1193 12.9853 10.5353 12.6527C10.7646 12.4684 10.9994 12.2857 11.235 12.1022C12.2266 11.3264 13.2434 10.5322 14.0839 9.57376C15.1031 8.41013 15.814 7.05257 15.814 5.29191C15.814 3.56891 14.8533 2.12239 13.5415 1.51494C12.2669 0.92431 10.5542 1.08058 8.92698 2.79476C8.87166 2.85294 8.80534 2.8992 8.73197 2.93081C8.65861 2.96241 8.57971 2.9787 8.5 2.9787C8.42029 2.9787 8.34139 2.96241 8.26803 2.93081C8.19467 2.8992 8.12834 2.85294 8.07302 2.79476C6.44577 1.08058 4.73312 0.92431 3.45851 1.51494ZM8.5 1.54379C6.67191 -0.115098 4.62479 -0.347503 2.96512 0.421035C1.21451 1.23445 0 3.11933 0 5.29271C0 7.42843 0.877674 9.05846 2.02972 10.3727C2.95167 11.425 4.08 12.3057 5.07707 13.0831C5.30321 13.2594 5.52223 13.4309 5.73019 13.5976C6.13581 13.9213 6.5707 14.2659 7.01112 14.5272C7.45153 14.7876 7.95442 15 8.5 15C9.04558 15 9.54847 14.7876 9.98888 14.5272C10.4301 14.2659 10.8642 13.9213 11.2698 13.5976C11.4864 13.4246 11.7041 13.2531 11.9229 13.0831C12.9192 12.3057 14.0483 11.4242 14.9703 10.3727C16.1223 9.05846 17 7.42843 17 5.29271C17 3.11933 15.7863 1.23445 14.0349 0.422637C12.3752 -0.346701 10.3281 -0.114297 8.5 1.54379Z" fill="#D6EFD8"/>
</svg>
