<svg width="20" height="19" viewBox="0 0 20 19" fill="none" xmlns="http://www.w3.org/2000/svg">
<path fill-rule="evenodd" clip-rule="evenodd" d="M2.48303 0.793297C3.70003 -0.416703 5.70403 -0.201703 6.72303 1.1603L7.98503 2.8443C8.81503 3.9523 8.74103 5.5003 7.75603 6.4793L7.51803 6.7173C7.49115 6.81722 7.48841 6.9221 7.51003 7.0233C7.57303 7.4313 7.91403 8.2953 9.34203 9.7153C10.77 11.1353 11.64 11.4753 12.054 11.5393C12.1582 11.5615 12.2662 11.5584 12.369 11.5303L12.777 11.1243C13.653 10.2543 14.997 10.0913 16.081 10.6803L17.991 11.7203C19.628 12.6083 20.041 14.8323 18.701 16.1653L17.28 17.5773C16.832 18.0223 16.23 18.3933 15.496 18.4623C13.686 18.6313 9.46903 18.4153 5.03603 14.0083C0.899027 9.8943 0.105027 6.3063 0.00402701 4.5383C-0.045973 3.6443 0.376027 2.8883 0.914027 2.3543L2.48303 0.793297ZM5.52303 2.0593C5.01603 1.3823 4.07203 1.3283 3.54003 1.8573L1.97003 3.4173C1.64003 3.7453 1.48203 4.1073 1.50203 4.4533C1.58203 5.8583 2.22203 9.0953 6.09403 12.9453C10.156 16.9833 13.907 17.1043 15.357 16.9683C15.653 16.9413 15.947 16.7873 16.222 16.5143L17.642 15.1013C18.22 14.5273 18.093 13.4813 17.275 13.0373L15.365 11.9983C14.837 11.7123 14.219 11.8063 13.835 12.1883L13.38 12.6413L12.85 12.1093C13.38 12.6413 13.378 12.6423 13.378 12.6423L13.377 12.6443L13.374 12.6473L13.367 12.6533L13.352 12.6673C13.3095 12.7061 13.264 12.7415 13.216 12.7733C13.136 12.8263 13.03 12.8853 12.897 12.9343C12.627 13.0353 12.269 13.0893 11.827 13.0213C10.96 12.8883 9.81103 12.2973 8.28403 10.7793C6.75803 9.2613 6.16203 8.1193 6.02803 7.2533C5.95903 6.8113 6.01403 6.4533 6.11603 6.1833C6.17259 6.03156 6.25293 5.88979 6.35403 5.7633L6.38603 5.7283L6.40003 5.7133L6.40603 5.7073L6.40903 5.7043L6.41103 5.7023L6.69903 5.4163C7.12703 4.9893 7.18703 4.2823 6.78403 3.7433L5.52303 2.0593Z" fill="#D6EFD8"/>
</svg>
